# xmcd
# 
# Track frame offsets:
#     150
#     13682
#     27485
#     40310
#     53540
#     65225
#     76557
#     89782
#     104730
#     116582
#     132867
#     151755
#     163615
#     174635
#     187350
#     201180
#     214982
#     233455
#     242762
#     252660
# 
# Disc length: 3544
# 
# Revision: 4
# Processed by: cddbd v1.5.2PL0 Copyright (c) Steve Scherf et al.
# Submitted via: fre:ac v1.0.27
# 
DISCID=1f0dd614
DTITLE=Various Artist - Easy Listening Gold
DYEAR=1993
DGENRE=Country
TTITLE0=Dolly Parton - Here You Come Again
TTITLE1=Alabama - Face To Face
TTITLE2=Patsy Cline - I Fall To Pieces
TTITLE3=Kenny Rogers and the First Edition - Ruby, Don't Take Your Love To Town
TTITLE4=Crystal Gayle - Don't It Make Your Brown Eyes Blue
TTITLE5=Eddy Arnold - Turn The World Around
TTITLE6=Terri Gibbs - Somebody's Knockin
TTITLE7=Lee Greenwood - Dixie Road
TTITLE8=Sonny James - Born To Be With You
TTITLE9=Barbaba Mandrell with George Jones - I Was Country When Country Wasn't Cool
TTITLE10=Kenny Rogers and Dolly Parton - Islands In The Stream
TTITLE11=Jim Reeves - Welcome To My World
TTITLE12=Glenn Campbell - Try A Little Kindness
TTITLE13=Barbara Mandrell - One Of A Kind Pair Of Fools
TTITLE14=Charley Pride - All I Have To Offer You (Is Me)
TTITLE15=Marty Robbins - Twentieth Century Drifter
TTITLE16=Don Williams - I Believe In You
TTITLE17=Don Gibson - Blue, Blue Day
TTITLE18=Eddy Arnold - What's He Doin' In My World
TTITLE19=Glen Campbell - Gentle On My Mind
EXTD=Reader's Digest Collection
EXTT0=Dolly Paron\n
EXTT1=Alabama\n
EXTT2=Patsy Cline\n
EXTT3=Kenny Rodgers\n
EXTT4=Crystal Gayle\n
EXTT5=Eddy Arnold\n
EXTT6=Terri Gibbs\n
EXTT7=Lee Greenwood\n
EXTT8=Sonny James\n
EXTT9=Barbara Mandrell\n
EXTT10=Kenny Rodgers\n
EXTT11=Jim Reeves\n
EXTT12=Glen Campbell\n
EXTT13=Barbara Mandrell\n
EXTT14=Charley Pride\n
EXTT15=Marty Robbins\n
EXTT16=Don Williams\n
EXTT17=Don Gibson\n
EXTT18=Eddy Arnold\n
EXTT19=Glen Campbell\n
PLAYORDER=
